Coordinates
version=1
nRows=12
nColumns=24
inDegrees=yes

Units are S.I. units (second, meters, Newtons, ...)
Angles are in degrees.

endheader
time	pelvis_tilt	pelvis_list	pelvis_rotation	pelvis_tx	pelvis_ty	pelvis_tz	hip_flexion_r	hip_adduction_r	hip_rotation_r	knee_angle_r	ankle_angle_r	subtalar_angle_r	mtp_angle_r	hip_flexion_l	hip_adduction_l	hip_rotation_l	knee_angle_l	ankle_angle_l	subtalar_angle_l	mtp_angle_l	lumbar_extension	lumbar_bending	lumbar_rotation
      4.00500000	     -9.78333100	     -8.72725858	      4.23975965	     -2.78803979	     -0.02180763	      0.43276142	     22.70084110	      9.99793127	     -8.02837534	    -14.86666908	     -6.85706658	     -5.17954378	      4.74469412	     16.44755740	     -9.93216508	      3.27393653	    -59.19102751	    -28.06960382	     -1.55740493	     25.09349983	      7.43772367	      8.16761319	     -4.10379177
      4.01000000	     -9.59423457	     -8.70003494	      4.12632777	     -2.78229684	     -0.02111538	      0.43351740	     22.01914192	     10.16200560	     -7.77478869	    -14.74882952	     -6.55757655	     -5.27883065	      4.80436583	     17.15186911	     -9.82869728	      3.35180960	    -60.21318940	    -27.56917559	     -2.94929878	     24.63038421	      7.16530150	      8.13706723	     -3.72865952
      4.01500000	     -9.42311742	     -8.57460827	      4.01146674	     -2.77657684	     -0.02035703	      0.43424009	     21.33989752	     10.22262743	     -7.43566765	    -14.62725153	     -6.27302949	     -5.40788453	      4.78868752	     17.84360035	     -9.60044141	      3.40900536	    -61.12377333	    -27.05015135	     -4.27169933	     24.00355610	      6.91074425	      7.99848038	     -3.37378879
      4.02000000	     -9.26723165	     -8.42607015	      3.87511833	     -2.77086356	     -0.01960599	      0.43499128	     20.67273094	     10.26354155	     -7.06991063	    -14.50691387	     -5.97806245	     -5.53897755	      4.74681112	     18.53515127	     -9.35541929	      3.44816621	    -61.93972685	    -26.46635162	     -5.36252221	     23.49753713	      6.67491918	      7.83452499	     -2.99163351
      4.02500000	     -9.13047999	     -8.22841144	      3.73054228	     -2.76517468	     -0.01883000	      0.43572905	     20.02046921	     10.24999493	     -6.67250608	    -14.38567017	     -5.70734522	     -5.68676598	      4.67360583	     19.22149415	     -9.04939060	      3.48605646	    -62.64270169	    -25.83162990	     -6.26345667	     23.11849825	      6.46008371	      7.62034869	     -2.60402545
      4.03000000	     -9.01361074	     -8.00060199	      3.57891585	     -2.75949526	     -0.01805701	      0.43648129	     19.38597750	     10.20273112	     -6.26491787	    -14.26223093	     -5.43831261	     -5.84938019	      4.59241318	     19.90938620	     -8.71371768	      3.51481652	    -63.23827601	    -25.15017129	     -6.97152680	     22.90794007	      6.27085274	      7.36986248	     -2.21423488
      4.03500000	     -8.92614841	     -7.78899492	      3.48608995	     -2.75383620	     -0.01730196	      0.43710352	     18.77210897	     10.13602983	     -5.90731523	    -14.10371332	     -5.18005239	     -5.94506762	      4.55739070	     20.63617121	     -8.35912113	      3.63079956	    -63.73890942	    -24.43835502	     -7.51257163	     22.92832313	      6.13106975	      7.13694241	     -1.91473124
      4.04000000	     -8.85512023	     -7.47294539	      3.33339373	     -2.74820963	     -0.01650382	      0.43781152	     18.18088402	      9.97943566	     -5.46799613	    -13.97733113	     -4.93183009	     -6.11125737	      4.47276780	     21.32656314	     -7.91552379	      3.64307112	    -64.11265187	    -23.69258513	     -7.93135461	     22.92952205	      5.99528464	      6.79440326	     -1.53897321
      4.04500000	     -8.77355840	     -7.15164582	      3.02523398	     -2.74261322	     -0.01571445	      0.43875262	     17.58517978	      9.87590151	     -4.86115961	    -13.87784148	     -4.75057978	     -6.39482734	      4.25245991	     21.95792301	     -7.56157236	      3.45252800	    -64.40575447	    -22.76865366	     -8.10752306	     22.85679286	      5.82863312	      6.46719136	     -0.96845248
      4.05000000	     -8.74010577	     -6.78775764	      2.83507516	     -2.73700853	     -0.01492338	      0.43951034	     17.03065266	      9.66693821	     -4.40532780	    -13.74192753	     -4.53472649	     -6.57797166	      4.14447963	     22.63852045	     -7.09489612	      3.40013059	    -64.57792956	    -21.85780644	     -8.15614301	     22.95934355	      5.74165879	      6.07814527	     -0.55450807
      4.05500000	     -8.71946479	     -6.41316795	      2.62430457	     -2.73145981	     -0.01415875	      0.44028369	     16.49572271	      9.44470080	     -3.90087339	    -13.61426584	     -4.31933386	     -6.75477338	      4.02786210	     23.31580838	     -6.63392849	      3.30954635	    -64.66033740	    -20.88896453	     -8.07674957	     23.10196924	      5.66620802	      5.68433115	     -0.15713754
      4.06000000	     -8.71824400	     -6.01251326	      2.40326943	     -2.72592141	     -0.01340008	      0.44107118	     15.98046286	      9.18778403	     -3.42568384	    -13.47644773	     -4.10139916	     -6.90165321	      3.92958502	     23.98674618	     -6.15335032	      3.19825641	    -64.63656398	    -19.91906212	     -7.91213681	     23.26957105	      5.61530461	      5.26195648	      0.24632510
